<?xml version="1.0" encoding="UTF-8" standalone="no"?><!DOCTYPE svg PUBLIC "-//W3C//DTD SVG 1.1//EN" "http://www.w3.org/Graphics/SVG/1.1/DTD/svg11.dtd"><svg width="100%" height="100%" viewBox="0 0 96 96" version="1.1" xmlns="http://www.w3.org/2000/svg" xmlns:xlink="http://www.w3.org/1999/xlink" xml:space="preserve" xmlns:serif="http://www.serif.com/" style="fill-rule:evenodd;clip-rule:evenodd;stroke-linejoin:round;stroke-miterlimit:2;"><path id="path992" d="M48,0c-12.73,0 -24.939,5.057 -33.941,14.059c-9.002,9.002 -14.059,21.211 -14.059,33.941c0,12.73 5.057,24.939 14.059,33.941c9.002,9.002 21.211,14.059 33.941,14.059c12.73,-0 24.94,-5.057 33.941,-14.059c9.002,-9.002 14.059,-21.211 14.059,-33.941c-0,-12.73 -5.057,-24.939 -14.059,-33.941c-9.001,-9.002 -21.211,-14.059 -33.941,-14.059Zm12.693,10.053l6.379,2.744l-0,12.982l18.269,-0l-2.572,5.98l-15.697,-0l-0,27.508l0.002,0l-0,17.264c0.18,-0.385 0.379,-0.789 0.545,-1.095c1.201,-2.225 2.629,-4.121 4.458,-5.917c4.509,-4.417 11.945,-7.195 18.914,-6.521c1.094,0.111 1.785,0.174 2.394,0.211c-0.746,2.225 -1.653,4.391 -2.717,6.483c-1.73,-0.004 -3.401,0.001 -3.9,0.021c-3.929,0.15 -6.987,0.548 -9.985,1.299c-3.189,0.798 -5.683,2.09 -7.842,4.062c-0.608,0.556 -1.33,1.346 -1.867,2.034l-0,1.702c0.042,-0.055 0.084,-0.11 0.124,-0.161c1.851,-2.35 4.316,-4.087 7.212,-5.082c2.037,-0.7 5.002,-1.281 7.97,-1.561c2.213,-0.208 3.57,-0.259 7.17,-0.243c-0.784,1.37 -1.636,2.705 -2.556,3.997c-2.919,0.077 -5.824,0.358 -8.677,0.849c-3.743,0.644 -8.012,1.79 -11.169,2.999c-0.025,0.01 -0.05,0.019 -0.074,0.028l-0,2.041c0.04,-0.012 0.078,-0.023 0.112,-0.036c5.823,-2.107 11.229,-3.221 17.58,-3.623c0.135,-0.008 0.322,-0.016 0.536,-0.023c-1.076,1.339 -2.229,2.625 -3.455,3.852c-0.362,0.361 -0.728,0.715 -1.099,1.063c-5.195,0.66 -10.295,2.046 -15.205,4.153c-0.473,0.203 -1.053,0.458 -1.289,0.567l-0.302,0.14l0,0.036l-0.029,0.013l-0.039,-0.018l-0.039,0.018l-0.029,-0.013l0,-0.036l-0.302,-0.14c-0.236,-0.109 -0.816,-0.364 -1.289,-0.567c-7.002,-3.002 -14.387,-4.545 -21.885,-4.6c-0.245,-0.002 -0.491,-0.002 -0.737,-0.001c-3.685,0.021 -7.395,0.401 -11.098,1.144c-3.13,0.627 -6.333,1.554 -9.188,2.646l-3.895,-3.236l0.082,-0.037l0,0c0.011,-0.004 0.021,-0.009 0.032,-0.014l0.078,-0.034l0.001,0c6.679,-2.939 14.168,-4.637 21.844,-4.95c1.158,-0.047 4.559,-0.024 5.533,0.037c6.355,0.402 11.763,1.516 17.589,3.624c0.034,0.012 0.072,0.024 0.113,0.035l-0,-2.041c-0.025,-0.009 -0.05,-0.018 -0.075,-0.028c-3.158,-1.208 -7.43,-2.355 -11.174,-2.998c-8.587,-1.477 -17.655,-1.073 -26.128,1.164c-0.433,0.114 -0.798,0.197 -0.811,0.183c-0.026,-0.027 -3.393,-8.042 -3.424,-8.151c-0.003,-0.011 -0.001,-0.017 0.007,-0.017c0.022,0 0.093,0.051 0.209,0.148c1.092,0.927 2.685,1.6 4.503,1.905c1.031,0.172 1.444,0.203 2.997,0.224c1.504,0.02 2.088,0.002 4.274,-0.133c2.096,-0.129 2.589,-0.142 6.214,-0.165c4.315,-0.028 5.699,0.013 8.094,0.239c2.969,0.28 5.936,0.86 7.974,1.56c2.896,0.995 5.363,2.733 7.215,5.082c0.04,0.052 0.082,0.106 0.125,0.162l-0,-1.702c-0.538,-0.689 -1.261,-1.479 -1.869,-2.035c-2.16,-1.972 -4.655,-3.264 -7.846,-4.062c-2.999,-0.75 -6.058,-1.148 -9.989,-1.299c-1.095,-0.042 -7.797,-0.02 -8.472,0.028l-0.321,0.023l-0.671,-0.678c-1.625,-1.639 -3,-3.395 -4.093,-5.225c-0.336,-0.563 -1.002,-1.847 -1.002,-1.932c0,-0.01 0.007,-0.016 0.023,-0.015c0.047,0.002 0.171,0.056 0.416,0.179c1.707,0.856 3.695,1.225 6.294,1.166c1.063,-0.023 1.774,-0.075 3.6,-0.261c6.973,-0.674 14.412,2.105 18.923,6.521c1.83,1.797 3.259,3.692 4.461,5.917c0.166,0.307 0.365,0.71 0.546,1.095l-0,-44.772l-18.349,-0l2.572,-5.98l15.777,-0l-0,-15.726l-0.001,-0Z" style="fill-opacity:0.8;"/></svg>